<?xml version="1.0" encoding="UTF-8"?>
<svg xmlns="http://www.w3.org/2000/svg" id="Layer_1" data-name="Layer 1" viewBox="0 0 24 24">
  <path d="m23,12c0,.935-.364,1.814-1.025,2.475l-9.291,9.377c-.098.099-.226.148-.355.148-.127,0-.254-.048-.352-.145-.196-.194-.197-.511-.003-.707l9.292-9.379c.474-.474.734-1.101.734-1.769s-.26-1.295-.732-1.768L11.974.852c-.194-.196-.193-.513.003-.707.197-.195.514-.192.707.003l9.292,9.379c.66.659,1.024,1.538,1.024,2.473Zm-10,0c0-.668-.26-1.296-.729-1.765L2.356.149c-.194-.198-.51-.2-.707-.006-.197.193-.2.51-.006.707l9.917,10.089c.284.283.439.659.439,1.06s-.156.777-.442,1.063L1.644,23.149c-.194.197-.191.514.006.707.098.096.224.144.351.144.129,0,.259-.05.356-.149l9.911-10.083c.472-.472.732-1.1.732-1.768Z"/>
</svg>
